#!OML:ASF G:\JayActor3\Patient Classification 1\Patient 1\Session 2\male.ASF
:FULLY-SPECIFIED
:DEGREES
1290
root 7.4567 16.94 -5.49382 -180.753 -68.2203 182.027
lowerback -0.561834 -5.2276 -1.57881
upperback 2.10231 -7.06419 2.59535
thorax 2.99845 -3.61909 3.29606
lowerneck -7.07095 -4.16129 -4.59624
upperneck 21.5748 -7.10486 5.52355
head 8.18917 -3.53077 1.90508
rclavicle -5.91881e-014 3.18055e-014
rhumerus -32.7983 18.9479 -82.604
rradius 51.8643
rwrist -11.2504
rhand -25.1339 6.77111
rfingers 7.12502
rthumb 1.38222 -23.2042
lclavicle -5.91881e-014 3.18055e-014
lhumerus -19.362 -38.8813 74.8382
lradius 77.3804
lwrist 25.7407
lhand -19.1901 16.7864
lfingers 7.12502
lthumb 7.12169 46.6466
rfemur -10.4425 18.1837 12.6359
rtibia 60.882
rfoot 24.9294 -2.75904
rtoes 33.0911
lfemur -11.4894 2.44183 -23.0703
ltibia 25.8274
lfoot -11.336 5.29864
ltoes -2.92659
1291
root 7.31263 16.9583 -5.47836 -179.897 -68.0221 181.279
lowerback -0.700801 -4.99805 -1.47851
upperback 2.08928 -6.74839 2.41829
thorax 3.00557 -3.4535 3.06233
lowerneck -7.68563 -3.54833 -4.1782
upperneck 21.7457 -6.19161 5.19757
head 8.28295 -3.07161 1.80547
rclavicle -3.44891e-014 -2.78299e-015
rhumerus -33.5446 18.27 -82.718
rradius 50.594
rwrist -10.9097
rhand -24.0621 6.38599
rfingers 7.12502
rthumb 2.41741 -23.5801
lclavicle -3.44891e-014 -2.78299e-015
lhumerus -17.9676 -39.1311 74.6579
lradius 78.4513
lwrist 26.0692
lhand -19.0691 16.7288
lfingers 7.12502
lthumb 7.2384 46.585
rfemur -12.5572 18.1661 12.115
rtibia 63.1816
rfoot 23.9651 -1.97374
rtoes 32.374
lfemur -10.6339 2.54184 -23.6046
ltibia 24.8659
lfoot -11.3884 5.40069
ltoes -2.80211
1292
root 7.17564 16.9726 -5.4639 -178.956 -67.7819 180.473
lowerback -0.777237 -4.75899 -1.45492
upperback 2.07019 -6.41866 2.2373
thorax 2.98181 -3.28271 2.87372
lowerneck -8.22783 -2.98954 -3.79954
upperneck 21.7818 -5.35635 4.93396
head 8.33261 -2.64855 1.72947
rclavicle 3.89618e-014 -1.19271e-014
rhumerus -34.2327 17.7816 -82.8491
rradius 49.297
rwrist -10.3617
rhand -23.1433 6.21443
rfingers 7.12502
rthumb 3.30476 -23.7397
lclavicle 3.89618e-014 -1.19271e-014
lhumerus -16.6066 -39.4285 74.3887
lradius 79.697
lwrist 26.4876
lhand -18.9089 16.7092
lfingers 7.12502
lthumb 7.3931 46.5601
rfemur -14.8111 18.0768 11.5689
rtibia 65.5141
rfoot 22.5936 -0.590215
rtoes 31.5021
lfemur -9.88877 2.75904 -24.1581
ltibia 23.9783
lfoot -11.422 5.44232
ltoes -2.64714
1293
root 7.04407 16.9826 -5.4502 -177.961 -67.491 179.662
lowerback -0.822383 -4.51692 -1.48792
upperback 2.04059 -6.08405 2.05755
thorax 2.93799 -3.1108 2.72091
lowerneck -8.70906 -2.47839 -3.44695
upperneck 21.7012 -4.59022 4.71442
head 8.34267 -2.25744 1.66847
rclavicle -5.96851e-014 -2.78299e-015
rhumerus -34.867 17.4974 -83.0157
rradius 47.9949
rwrist -9.68152
rhand -22.4422 6.22397
rfingers 7.12502
rthumb 3.98172 -23.7186
lclavicle -5.96851e-014 -2.78299e-015
lhumerus -15.2896 -39.7529 74.0288
lradius 81.0989
lwrist 26.97
lhand -18.7517 16.6997
lfingers 7.12502
lthumb 7.5448 46.5452
rfemur -17.2145 17.9162 11.0136
rtibia 67.8589
rfoot 20.9099 1.09032
rtoes 30.4227
lfemur -9.2873 3.10924 -24.7184
ltibia 23.1996
lfoot -11.4638 5.41273
ltoes -2.4658
1294
root 6.91623 16.9879 -5.43751 -176.944 -67.1699 178.867
lowerback -0.839965 -4.28457 -1.57218
upperback 2.00238 -5.76202 1.8817
thorax 2.878 -2.94644 2.60222
lowerneck -9.14688 -2.0052 -3.10815
upperneck 21.5379 -3.88068 4.5187
head 8.3251 -1.89307 1.61385
rclavicle 5.25288e-014 -9.54166e-015
rhumerus -35.4444 17.4047 -83.2262
rradius 46.6988
rwrist -8.94777
rhand -21.964 6.3523
rfingers 7.12502
rthumb 4.44351 -23.5811
lclavicle 5.25288e-014 -9.54166e-015
lhumerus -14.0286 -40.068 73.5861
lradius 82.6366
lwrist 27.4221
lhand -18.564 16.7291
lfingers 7.12502
lthumb 7.72595 46.568
rfemur -19.7289 17.6741 10.4805
rtibia 70.1869
rfoot 19.0647 2.78666
rtoes 29.1902
lfemur -8.81482 3.57978 -25.2783
ltibia 22.5405
lfoot -11.5296 5.29602
ltoes -2.27266
1295
root 6.79276 16.9885 -5.42613 -175.907 -66.8522 178.07
lowerback -0.803786 -4.07795 -1.72623
upperback 1.95565 -5.474 1.70796
thorax 2.78912 -2.80054 2.52693
lowerneck -9.55418 -1.5605 -2.76642
upperneck 21.3184 -3.21662 4.33145
head 8.28925 -1.55029 1.55816
rclavicle 9.50688e-014 -2.62396e-014
rhumerus -35.9521 17.4786 -83.4883
rradius 45.4178
rwrist -8.23929
rhand -21.6608 6.54809
rfingers 7.12502
rthumb 4.73631 -23.379
lclavicle 9.50688e-014 -2.62396e-014
lhumerus -12.8356 -40.356 73.0623
lradius 84.2943
lwrist 27.8064
lhand -18.3459 16.7574
lfingers 7.12502
lthumb 7.9365 46.5884
rfemur -22.3182 17.3366 9.99278
rtibia 72.4691
rfoot 17.2221 4.29464
rtoes 27.8476
lfemur -8.44906 4.17982 -25.8357
ltibia 21.991
lfoot -11.6181 5.03887
ltoes -2.08013
1296
root 6.67299 16.9841 -5.41641 -174.833 -66.5615 177.218
lowerback -0.696595 -3.90707 -1.97483
upperback 1.91355 -5.23394 1.53003
thorax 2.67667 -2.68061 2.50211
lowerneck -9.94752 -1.13935 -2.41145
upperneck 21.0655 -2.59155 4.1387
head 8.24489 -1.22646 1.49531
rclavicle 1.71054e-013 -1.78906e-014
rhumerus -36.3701 17.6818 -83.7967
rradius 44.1615
rwrist -7.61607
rhand -21.4736 6.72915
rfingers 7.12502
rthumb 4.91707 -23.1938
lclavicle 1.71054e-013 -1.78906e-014
lhumerus -11.7121 -40.6027 72.4654
lradius 86.0512
lwrist 28.0703
lhand -18.1256 16.7618
lfingers 7.12502
lthumb 8.1491 46.5847
rfemur -24.9137 16.8963 9.55941
rtibia 74.6716
rfoot 15.4613 5.54857
rtoes 26.3572
lfemur -8.13402 4.91103 -26.405
ltibia 21.5257
lfoot -11.7212 4.60848
ltoes -1.89529
1297
root 6.55642 16.9746 -5.40785 -173.742 -66.2951 176.307
lowerback -0.512427 -3.77138 -2.31131
upperback 1.88852 -5.04284 1.34513
thorax 2.54839 -2.58704 2.52089
lowerneck -10.33 -0.735944 -2.03804
upperneck 20.7848 -1.99771 3.93507
head 8.19394 -0.918094 1.42333
rclavicle 6.53008e-014 -5.96354e-015
rhumerus -36.6862 17.9638 -84.1366
rradius 42.9543
rwrist -7.11892
rhand -21.3131 6.87054
rfingers 7.12502
rthumb 5.07203 -23.0488
lclavicle 6.53008e-014 -5.96354e-015
lhumerus -10.6487 -40.8004 71.8002
lradius 87.8839
lwrist 28.1995
lhand -17.9061 16.7167
lfingers 7.12502
lthumb 8.36094 46.5312
rfemur -27.4733 16.3727 9.196
rtibia 76.7614
rfoot 13.8007 6.59291
rtoes 24.6458
lfemur -7.82786 5.77694 -26.9838
ltibia 21.1199
lfoot -11.8386 3.9883
ltoes -1.69135
1298
root 6.44185 16.96 -5.39992 -172.668 -66.0623 175.344
lowerback -0.244652 -3.67265 -2.71661
upperback 1.89344 -4.90532 1.15003
thorax 2.41185 -2.52198 2.56918
lowerneck -10.691 -0.344334 -1.64557
upperneck 20.4714 -1.42597 3.71544
head 8.13248 -0.621519 1.34127
rclavicle 7.64824e-014 -1.82882e-014
rhumerus -36.894 18.2765 -84.4926
rradius 41.8068
rwrist -6.75134
rhand -21.1623 6.95623
rfingers 7.12502
rthumb 5.21763 -22.9595
lclavicle 7.64824e-014 -1.82882e-014
lhumerus -9.64603 -40.9473 71.0811
lradius 89.7724
lwrist 28.2147
lhand -17.7212 16.6068
lfingers 7.12502
lthumb 8.53943 46.4141
rfemur -29.93 15.7786 8.92452
rtibia 78.7038
rfoot 12.1815 7.54864
rtoes 22.6376
lfemur -7.48013 6.73833 -27.5648
ltibia 20.7541
lfoot -11.969 3.19949
ltoes -1.43873
1299
root 6.32822 16.9405 -5.39186 -171.657 -65.8429 174.369
lowerback 0.0909178 -3.6002 -3.15602
upperback 1.93765 -4.80902 0.944296
thorax 2.28188 -2.47901 2.62643
lowerneck -11.017 0.0366777 -1.24256
upperneck 20.1139 -0.874502 3.48853
head 8.05435 -0.335856 1.25347
rclavicle -4.33848e-014 -7.95139e-016
rhumerus -37.0008 18.5777 -84.8474
rradius 40.7424
rwrist -6.51026
rhand -21.0248 6.98295
rfingers 7.12502
rthumb 5.35038 -22.9295
lclavicle -4.33848e-014 -7.95139e-016
lhumerus -8.69079 -41.0427 70.3177
lradius 91.6871
lwrist 28.1338
lhand -17.5628 16.4268
lfingers 7.12502
lthumb 8.69229 46.2279
rfemur -32.2601 15.1532 8.76369
rtibia 80.4711
rfoot 10.5601 8.50104
rtoes 20.4359
lfemur -7.07023 7.72998 -28.1354
ltibia 20.4215
lfoot -12.1173 2.32124
ltoes -1.13295
